# xmcd CD database file generated by OrangeCD 6.3
#
# Track frame offsets:
#	150
#	20475
#	40345
#	58716
#	73964
#	91987
#	109207
#	126413
#	141878
#	156172
#	171884
#	190431
#
# Disc length: 2765 seconds
#
# Revision: 0
# Processed by: cddbd v1.5.2PL0 Copyright (c) Steve Scherf et al.
# Submitted via: OrangeCD 6.3
#
DISCID=b40acb0c
DTITLE=Kris Hollis Key - American Spirit
DYEAR=2009
DGENRE=
TTITLE0=Dancing On Midnight
TTITLE1=The Lonesome Saddle
TTITLE2=Don't She Look Like A Rodeo Star
TTITLE3=Groove With Me
TTITLE4=The Last Texas Waltz
TTITLE5=Honey I Still Miss You
TTITLE6=Gonna Catch A Wild One
TTITLE7=A Time In My Youth
TTITLE8=It's All Over Now
TTITLE9=Wild And Restless
TTITLE10=American Spirit
TTITLE11=Old Cars And Cigars
EXTD=
EXTT0=
EXTT1=
EXTT2=
EXTT3=
EXTT4=
EXTT5=
EXTT6=
EXTT7=
EXTT8=
EXTT9=
EXTT10=
EXTT11=
PLAYORDER=
